<?xml version="1.0" standalone="no"?>
<!DOCTYPE svg PUBLIC "-//W3C//DTD SVG 20010904//EN"
 "http://www.w3.org/TR/2001/REC-SVG-20010904/DTD/svg10.dtd">
<svg version="1.0" xmlns="http://www.w3.org/2000/svg"
 width="790.000000pt" height="790.000000pt" viewBox="0 0 790.000000 790.000000"
 preserveAspectRatio="xMidYMid meet">
<metadata>
Created by potrace 1.14, written by Peter Selinger 2001-2017
</metadata>
<g transform="translate(0.000000,790.000000) scale(0.100000,-0.100000)"
fill="#000000" stroke="none">
<path d="M3905 6451 c-16 -9 -32 -19 -33 -24 -2 -4 -8 -5 -13 -1 -5 3 -9 1 -9
-5 0 -5 -13 -12 -30 -16 -16 -4 -30 -11 -30 -16 0 -5 -3 -9 -7 -8 -16 2 -53
-14 -53 -23 0 -5 -4 -6 -10 -3 -5 3 -10 1 -10 -5 0 -6 -4 -8 -10 -5 -5 3 -10
1 -10 -4 0 -6 -9 -11 -20 -11 -11 0 -20 -4 -20 -10 0 -5 -7 -10 -15 -10 -15 0
-55 -19 -65 -31 -3 -3 -22 -12 -42 -20 -21 -7 -38 -17 -38 -21 0 -4 -9 -8 -20
-8 -11 0 -20 -5 -20 -11 0 -5 -4 -7 -10 -4 -5 3 -10 1 -10 -5 0 -6 -4 -8 -10
-5 -5 3 -10 1 -10 -4 0 -6 -9 -11 -20 -11 -11 0 -20 -4 -20 -9 0 -5 -13 -12
-30 -16 -16 -4 -30 -11 -30 -16 0 -5 -3 -8 -7 -8 -14 3 -73 -25 -73 -34 0 -4
-4 -5 -10 -2 -5 3 -10 1 -10 -5 0 -6 -4 -8 -10 -5 -5 3 -10 1 -10 -5 0 -6 -4
-8 -10 -5 -5 3 -10 1 -10 -5 0 -6 -4 -8 -10 -5 -5 3 -10 1 -10 -4 0 -6 -9 -11
-20 -11 -11 0 -20 -4 -20 -10 0 -5 -9 -10 -20 -10 -11 0 -20 -5 -20 -11 0 -5
-4 -7 -10 -4 -5 3 -10 2 -10 -4 0 -5 -13 -12 -30 -16 -16 -4 -30 -11 -30 -16
0 -5 -9 -9 -20 -9 -11 0 -20 -4 -20 -10 0 -5 -9 -10 -20 -10 -11 0 -20 -5 -20
-11 0 -5 -4 -7 -10 -4 -5 3 -10 2 -10 -4 0 -5 -13 -12 -30 -16 -16 -4 -30 -11
-30 -16 0 -5 -3 -9 -7 -8 -16 2 -53 -14 -53 -23 0 -5 -4 -6 -10 -3 -5 3 -10 1
-10 -5 0 -6 -4 -8 -10 -5 -5 3 -10 1 -10 -4 0 -6 -9 -11 -20 -11 -11 0 -20 -4
-20 -10 0 -5 -9 -10 -19 -10 -11 0 -26 -7 -35 -15 -8 -8 -22 -15 -30 -15 -9 0
-16 -5 -16 -11 0 -5 -4 -7 -10 -4 -5 3 -10 1 -10 -5 0 -6 -4 -8 -10 -5 -5 3
-10 1 -10 -5 0 -6 -4 -8 -10 -5 -5 3 -10 1 -10 -5 0 -6 -4 -8 -10 -5 -5 3 -10
1 -10 -4 0 -6 -9 -11 -20 -11 -11 0 -20 -4 -20 -10 0 -5 -9 -10 -20 -10 -11 0
-20 -5 -20 -11 0 -5 -4 -7 -10 -4 -5 3 -10 2 -10 -4 0 -5 -13 -12 -30 -16 -17
-4 -30 -11 -30 -15 0 -5 -18 -15 -40 -21 -22 -7 -40 -16 -40 -21 0 -5 -4 -6
-10 -3 -5 3 -10 2 -10 -4 0 -5 -13 -12 -30 -16 -17 -4 -30 -11 -30 -16 0 -5
-3 -9 -7 -8 -16 2 -53 -14 -53 -23 0 -5 -4 -6 -10 -3 -5 3 -10 1 -10 -5 0 -6
-4 -8 -10 -5 -5 3 -10 1 -10 -4 0 -6 -9 -11 -20 -11 -11 0 -20 -4 -20 -10 0
-5 -9 -10 -19 -10 -11 0 -26 -7 -35 -15 -8 -8 -22 -15 -30 -15 -9 0 -16 -5
-16 -11 0 -5 -4 -7 -10 -4 -5 3 -10 1 -10 -5 0 -6 -4 -8 -10 -5 -5 3 -10 1
-10 -5 0 -6 -4 -8 -10 -5 -5 3 -10 1 -10 -5 0 -6 -4 -8 -10 -5 -5 3 -10 1 -10
-5 0 -6 -4 -8 -10 -5 -5 3 -10 2 -10 -4 0 -5 -14 -12 -30 -16 -16 -4 -30 -10
-30 -14 0 -4 -18 -14 -40 -21 -22 -7 -40 -17 -40 -22 0 -4 -6 -7 -12 -6 -10 2
-13 -280 -13 -1387 l0 -1390 1135 -569 c639 -320 1136 -563 1138 -557 2 6 8 9
13 5 5 -3 9 0 9 6 0 6 5 8 10 5 6 -3 10 -1 10 5 0 6 5 8 10 5 6 -3 10 -1 10 6
0 7 3 9 7 6 3 -4 15 0 25 10 10 9 18 12 18 8 0 -4 9 0 21 11 12 10 22 17 23
15 0 -2 21 7 46 20 25 12 48 22 53 21 4 -1 7 3 7 10 0 6 3 9 6 5 3 -3 24 5 45
19 21 13 39 21 39 18 0 -4 8 0 18 9 10 10 22 14 25 10 4 -3 7 -1 7 6 0 7 5 9
10 6 6 -3 10 -1 10 6 0 7 3 9 6 6 4 -4 19 2 34 13 15 11 30 17 34 13 3 -3 6
-1 6 6 0 7 5 9 10 6 6 -3 10 -1 10 5 0 6 5 8 10 5 6 -3 10 -1 10 5 0 6 4 9 9
6 5 -3 14 1 21 9 7 8 16 12 21 9 5 -3 9 0 9 7 0 7 3 9 6 6 4 -4 20 3 35 14 16
11 29 17 29 13 0 -4 8 0 18 9 10 10 22 14 25 10 4 -3 7 0 7 7 0 7 3 10 7 7 3
-4 15 0 25 10 10 9 18 13 18 9 0 -4 14 2 30 14 17 12 30 18 30 14 0 -4 8 0 18
9 10 10 22 14 25 10 4 -3 7 0 7 7 0 7 3 10 6 7 4 -4 20 3 35 14 16 11 29 17
29 14 0 -3 13 3 29 14 15 11 31 18 35 14 3 -3 6 0 6 7 0 7 3 10 7 7 3 -4 15 0
25 10 10 9 18 12 18 8 0 -4 8 -1 18 8 9 8 19 15 22 15 3 -1 25 10 50 23 25 12
48 22 53 21 4 -1 7 3 7 10 0 6 3 9 6 5 3 -3 24 5 45 19 21 13 39 22 39 18 0
-3 13 4 29 15 15 11 31 18 35 14 3 -3 6 0 6 7 0 7 3 10 6 7 4 -4 19 2 34 13
15 11 30 17 34 13 3 -3 6 -1 6 6 0 7 5 9 10 6 6 -3 10 -1 10 5 0 6 5 8 10 5 6
-3 10 -1 10 5 0 6 5 8 10 5 6 -3 10 -1 10 5 0 6 5 8 10 5 6 -3 10 -1 10 6 0 7
3 9 6 6 4 -4 19 2 34 13 15 11 30 17 34 13 3 -3 6 0 6 7 0 7 3 10 6 7 4 -4 19
2 34 13 15 11 30 17 34 13 3 -3 6 -1 6 6 0 7 5 9 10 6 6 -3 10 -1 10 6 0 7 3
9 6 6 4 -4 20 3 35 14 16 11 29 17 29 13 0 -4 8 0 18 9 10 10 22 14 25 10 4
-3 7 0 7 7 0 7 3 10 6 7 4 -4 20 3 35 14 16 11 29 18 29 15 0 -4 18 5 39 18
21 14 42 22 45 19 3 -4 6 -1 6 6 0 7 5 9 10 6 6 -3 10 -1 10 6 0 7 3 10 6 6 3
-3 24 5 45 19 21 13 39 22 39 18 0 -3 13 4 29 15 15 11 31 18 35 14 3 -3 6 -1
6 6 0 7 5 9 10 6 6 -3 10 -1 10 5 0 6 5 8 10 5 6 -3 10 -1 10 5 0 6 4 9 9 6 5
-3 11 0 14 7 3 7 4 634 3 1393 l-1 1379 -1110 557 c-610 306 -1121 561 -1135
566 -18 6 -34 4 -55 -7z m715 -950 l675 -339 -40 -18 c-22 -11 -41 -22 -43
-26 -2 -5 -12 -8 -23 -8 -10 0 -19 -4 -19 -9 0 -5 -13 -12 -30 -16 -16 -4 -30
-11 -30 -16 0 -5 -9 -9 -20 -9 -11 0 -20 -5 -20 -11 0 -5 -4 -7 -10 -4 -5 3
-10 1 -10 -5 0 -6 -4 -8 -10 -5 -5 3 -10 1 -10 -5 0 -6 -4 -8 -10 -5 -5 3 -10
1 -10 -5 0 -6 -4 -8 -10 -5 -5 3 -10 1 -10 -4 0 -6 -9 -11 -20 -11 -11 0 -20
-5 -20 -11 0 -5 -4 -7 -10 -4 -5 3 -10 2 -10 -4 0 -5 -13 -12 -30 -16 -16 -4
-30 -10 -30 -15 0 -5 -13 -11 -30 -15 -16 -4 -30 -11 -30 -16 0 -6 -4 -7 -10
-4 -5 3 -10 1 -10 -5 0 -6 -4 -9 -9 -5 -5 3 -16 -1 -24 -9 -8 -8 -17 -12 -21
-9 -3 4 -6 1 -6 -6 0 -7 -4 -9 -10 -6 -5 3 -10 2 -10 -4 0 -6 -18 -16 -40 -22
-22 -7 -40 -16 -40 -21 0 -4 -9 -8 -20 -8 -11 0 -20 -5 -20 -11 0 -5 -4 -7
-10 -4 -5 3 -10 1 -10 -5 0 -6 -4 -8 -10 -5 -5 3 -10 1 -10 -4 0 -6 -3 -10 -7
-9 -11 2 -127 -55 -131 -65 -2 -4 -8 -5 -13 -1 -5 3 -9 0 -9 -5 0 -6 -3 -10
-7 -9 -11 2 -66 -24 -74 -35 -3 -5 -9 -9 -12 -9 -19 0 -47 -12 -47 -20 0 -5
-4 -6 -10 -3 -5 3 -10 1 -10 -4 0 -6 -3 -11 -7 -10 -16 2 -53 -14 -53 -23 0
-5 -4 -6 -10 -3 -5 3 -10 1 -10 -5 0 -6 -4 -9 -9 -5 -5 3 -16 -1 -24 -9 -8 -8
-17 -12 -21 -9 -3 4 -6 1 -6 -6 0 -7 -4 -9 -10 -6 -5 3 -10 2 -10 -4 0 -6 -18
-16 -40 -22 -22 -7 -40 -15 -40 -19 0 -4 -12 -10 -27 -13 -21 -4 -170 67 -698
330 l-670 336 35 16 c19 9 37 19 40 22 3 3 22 12 43 20 20 7 37 17 37 21 0 4
9 8 20 8 11 0 20 5 20 11 0 5 5 7 10 4 6 -3 10 -1 10 5 0 6 5 8 10 5 6 -3 10
-1 10 4 0 6 9 11 20 11 11 0 20 5 20 11 0 5 5 7 10 4 6 -3 10 -1 10 5 0 6 5 8
10 5 6 -3 10 -1 10 5 0 6 5 8 10 5 6 -3 10 -1 10 5 0 6 4 9 9 5 5 -3 16 2 24
10 9 8 23 15 31 15 9 0 16 5 16 11 0 5 5 7 10 4 6 -3 10 -2 10 4 0 5 14 12 30
16 17 4 30 11 30 16 0 5 3 9 8 8 15 -2 52 14 52 23 0 5 5 6 10 3 6 -3 10 -1
10 5 0 6 5 8 10 5 6 -3 10 -1 10 4 0 6 9 11 20 11 11 0 20 5 20 10 0 6 9 10
20 10 11 0 20 4 20 9 0 5 14 12 30 16 17 4 30 11 30 16 0 5 9 9 20 9 11 0 20
5 20 11 0 5 5 7 10 4 6 -3 10 -1 10 5 0 6 5 8 10 5 6 -3 10 -1 10 4 0 6 9 11
20 11 11 0 20 5 20 10 0 6 9 10 20 10 11 0 20 5 20 11 0 5 5 7 10 4 6 -3 10
-2 10 4 0 5 14 12 30 16 17 4 30 11 30 16 0 5 3 8 8 8 13 -3 72 25 72 34 0 4
5 5 10 2 6 -3 10 -1 10 5 0 6 5 8 10 5 6 -3 10 -1 10 5 0 6 5 8 10 5 6 -3 10
-1 10 5 0 6 5 8 10 5 6 -3 10 -1 10 4 0 6 9 11 20 11 11 0 20 5 20 10 0 6 9
10 20 10 11 0 20 5 20 11 0 5 5 7 10 4 6 -3 10 -1 10 5 0 6 5 8 10 5 6 -3 10
-1 10 5 0 6 5 8 10 5 6 -3 10 -1 10 5 0 6 5 8 10 5 6 -3 10 -1 10 4 0 6 9 11
20 11 11 0 20 5 20 10 0 6 3 10 8 9 4 0 311 -152 682 -338z m-1660 -1151 c385
-193 700 -356 701 -363 4 -64 0 -1769 -4 -1773 -2 -3 -320 153 -706 345 l-701
351 -1 105 c0 137 0 1604 0 1650 1 19 3 35 6 35 3 0 320 -158 705 -350z m2681
313 c0 -21 1 -421 1 -890 1 -685 -1 -855 -12 -868 -7 -8 -15 -13 -18 -11 -3 3
-17 -3 -32 -14 -15 -11 -30 -17 -34 -13 -3 3 -6 0 -6 -7 0 -7 -3 -10 -7 -7 -3
4 -15 0 -25 -10 -10 -9 -18 -12 -18 -8 0 4 -9 0 -20 -10 -11 -10 -20 -14 -20
-10 0 4 -9 0 -20 -10 -11 -10 -20 -14 -20 -10 0 4 -9 0 -20 -10 -11 -10 -20
-14 -20 -10 0 4 -9 0 -20 -10 -11 -10 -20 -14 -20 -10 0 4 -9 0 -20 -10 -11
-10 -20 -15 -20 -11 0 4 -13 -2 -29 -13 -15 -11 -31 -18 -35 -14 -3 3 -6 1 -6
-6 0 -7 -4 -10 -9 -7 -5 3 -14 -1 -21 -9 -7 -8 -16 -13 -20 -10 -4 3 -13 -2
-20 -10 -7 -8 -16 -12 -21 -9 -5 3 -9 0 -9 -6 0 -6 -4 -8 -10 -5 -5 3 -10 1
-10 -6 0 -7 -3 -9 -7 -6 -3 4 -15 0 -25 -10 -10 -9 -18 -13 -18 -9 0 4 -13 -2
-30 -14 -16 -12 -30 -18 -30 -14 0 4 -9 -1 -20 -11 -11 -10 -20 -14 -20 -10 0
4 -9 0 -20 -10 -11 -10 -20 -14 -20 -10 0 4 -8 1 -18 -8 -10 -10 -22 -14 -25
-10 -4 3 -7 0 -7 -7 0 -7 -3 -11 -6 -7 -3 3 -24 -5 -45 -19 -21 -13 -39 -21
-39 -18 0 4 -9 -1 -20 -11 -11 -10 -20 -15 -20 -11 0 4 -13 -2 -30 -14 -16
-12 -30 -18 -30 -15 0 3 -13 -3 -29 -14 -15 -11 -31 -18 -35 -14 -3 3 -6 0 -6
-7 0 -7 -3 -10 -6 -7 -4 4 -20 -3 -35 -14 -16 -11 -29 -17 -29 -13 0 4 -9 -1
-20 -11 -11 -10 -20 -15 -20 -11 0 4 -13 -2 -30 -14 -16 -12 -30 -18 -30 -14
0 4 -8 0 -18 -9 -10 -10 -22 -14 -25 -10 -4 3 -7 0 -7 -7 0 -7 -3 -10 -6 -7
-4 4 -19 -2 -34 -13 -15 -11 -30 -17 -34 -13 -3 3 -6 0 -6 -7 0 -7 -3 -10 -7
-7 -3 4 -15 0 -25 -10 -10 -9 -18 -12 -18 -7 0 5 -5 2 -10 -6 -12 -19 -11
-133 -11 880 0 1023 -1 923 11 915 6 -3 10 -1 10 4 0 6 3 11 8 10 15 -2 52 14
52 22 0 5 9 9 20 9 11 0 20 4 20 9 0 5 14 12 30 16 17 4 30 11 30 16 0 5 9 9
20 9 11 0 20 5 20 11 0 5 5 7 10 4 6 -3 10 -1 10 5 0 6 5 8 10 5 6 -3 10 -1
10 4 0 6 3 10 8 10 13 -3 72 25 72 34 0 4 5 5 10 2 6 -3 10 -2 10 4 0 5 14 12
30 16 17 4 30 11 30 15 0 5 18 15 40 21 22 7 40 16 40 21 0 5 5 6 10 3 6 -3
10 -1 10 5 0 6 5 8 10 5 6 -3 10 -1 10 5 0 6 5 8 10 5 6 -3 10 -1 10 5 0 6 5
8 10 5 6 -3 10 -1 10 5 0 6 5 8 10 5 6 -3 10 -2 10 4 0 5 14 12 30 16 17 4 30
11 30 16 0 5 9 9 20 9 11 0 20 5 20 11 0 5 5 7 10 4 6 -3 10 -1 10 5 0 6 5 8
10 5 6 -3 10 -1 10 5 0 6 5 8 10 5 6 -3 10 -1 10 5 0 6 5 8 10 5 6 -3 10 -1
10 4 0 6 9 11 20 11 11 0 20 5 20 11 0 5 4 8 9 4 5 -3 16 1 24 9 8 8 17 12 21
9 3 -4 6 -1 6 6 0 7 5 9 10 6 6 -3 10 -2 10 4 0 5 14 12 30 16 17 4 30 11 30
16 0 6 5 7 10 4 6 -3 10 -1 10 4 0 6 3 11 8 10 15 -2 52 14 52 23 0 5 5 6 10
3 6 -3 10 -1 10 4 0 6 3 10 8 9 10 -2 86 35 90 45 2 4 12 7 23 7 10 0 19 5 19
11 0 5 5 7 10 4 6 -3 10 -1 10 4 0 6 3 10 8 10 13 -3 72 25 72 34 0 4 5 5 10
2 6 -3 10 -2 10 4 0 5 14 12 30 16 17 4 30 11 30 16 0 5 7 9 15 9 11 0 15 -11
16 -37z"/>
<path d="M1035 6274 c-253 -44 -409 -203 -479 -489 -29 -119 -36 -226 -41
-624 -6 -439 -16 -568 -57 -699 -43 -142 -135 -240 -271 -290 -31 -12 -58 -21
-60 -20 -1 0 -28 -2 -60 -6 l-57 -7 0 -200 c0 -182 1 -199 18 -200 88 -6 146
-21 213 -54 129 -66 224 -213 244 -380 3 -27 8 -64 10 -82 9 -66 16 -217 20
-468 9 -546 25 -677 100 -832 69 -139 216 -257 375 -298 72 -19 430 -34 431
-19 3 43 1 365 -2 368 -3 3 -43 6 -91 7 -335 7 -394 85 -398 519 -2 329 -8
593 -15 645 -3 28 -8 68 -10 90 -3 22 -7 50 -9 61 -2 12 -7 37 -10 55 -28 171
-108 323 -226 432 -62 58 -202 147 -229 147 -21 0 -6 12 54 45 240 131 357
301 409 595 19 105 26 224 31 540 2 135 5 296 6 358 2 121 18 225 44 288 43
103 147 148 352 153 48 1 90 4 93 6 4 2 5 322 1 368 -1 12 -306 5 -386 -9z"/>
<path d="M6485 6101 l0 -191 85 0 c110 -1 231 -23 275 -50 61 -38 101 -109
119 -210 4 -19 9 -143 11 -275 8 -409 15 -629 19 -665 2 -19 7 -62 11 -95 4
-33 9 -63 11 -66 2 -3 6 -21 9 -40 25 -141 92 -274 189 -374 65 -67 200 -165
246 -180 30 -10 24 -19 -27 -44 -259 -126 -401 -358 -438 -716 -2 -27 -7 -201
-10 -385 -5 -348 -11 -517 -20 -560 -36 -185 -84 -229 -285 -264 -14 -3 -63
-5 -110 -5 l-85 -1 0 -188 0 -187 180 1 c203 1 265 12 380 69 168 82 289 270
320 496 4 30 9 63 11 74 6 28 13 265 19 580 3 149 7 299 10 335 9 112 36 252
61 308 73 164 224 262 421 271 8 1 11 56 11 201 0 197 0 200 -22 201 -211 11
-376 137 -430 329 -21 74 -23 86 -41 265 -3 28 -7 165 -10 305 -5 281 -14 538
-20 585 -2 17 -7 53 -9 80 -27 268 -184 477 -411 548 -77 24 -107 28 -295 34
l-175 5 0 -191z"/>
</g>
</svg>
